<?xml version="1.0" encoding="UTF-8" standalone="no"?>
<!DOCTYPE svg PUBLIC "-//W3C//DTD SVG 1.1//EN"
 "http://www.w3.org/Graphics/SVG/1.1/DTD/svg11.dtd">
<!-- Generated by graphviz version 2.40.1 (20161225.0304)
 -->
<!-- Title: snakemake_dag Pages: 1 -->
<svg width="248pt" height="476pt"
 viewBox="0.00 0.00 247.50 476.00" xmlns="http://www.w3.org/2000/svg" xmlns:xlink="http://www.w3.org/1999/xlink">
<g id="graph0" class="graph" transform="scale(1 1) rotate(0) translate(4 472)">
<title>snakemake_dag</title>
<polygon fill="#ffffff" stroke="transparent" points="-4,4 -4,-472 243.5,-472 243.5,4 -4,4"/>
<!-- 0 -->
<g id="node1" class="node">
<title>0</title>
<path fill="none" stroke="#88d856" stroke-width="2" d="M98.5,-36C98.5,-36 68.5,-36 68.5,-36 62.5,-36 56.5,-30 56.5,-24 56.5,-24 56.5,-12 56.5,-12 56.5,-6 62.5,0 68.5,0 68.5,0 98.5,0 98.5,0 104.5,0 110.5,-6 110.5,-12 110.5,-12 110.5,-24 110.5,-24 110.5,-30 104.5,-36 98.5,-36"/>
<text text-anchor="middle" x="83.5" y="-15.5" font-family="sans" font-size="10.00" fill="#000000">all</text>
</g>
<!-- 1 -->
<g id="node2" class="node">
<title>1</title>
<path fill="none" stroke="#d8bc56" stroke-width="2" d="M79,-324C79,-324 12,-324 12,-324 6,-324 0,-318 0,-312 0,-312 0,-300 0,-300 0,-294 6,-288 12,-288 12,-288 79,-288 79,-288 85,-288 91,-294 91,-300 91,-300 91,-312 91,-312 91,-318 85,-324 79,-324"/>
<text text-anchor="middle" x="45.5" y="-303.5" font-family="sans" font-size="10.00" fill="#000000">filter_summary</text>
</g>
<!-- 1&#45;&gt;0 -->
<g id="edge1" class="edge">
<title>1&#45;&gt;0</title>
<path fill="none" stroke="#c0c0c0" stroke-width="2" d="M45.3964,-287.8644C45.5119,-248.2365 47.6604,-151.1341 64.5,-72 66.353,-63.2924 69.2355,-54.0668 72.2003,-45.752"/>
<polygon fill="#c0c0c0" stroke="#c0c0c0" stroke-width="2" points="75.564,-46.7497 75.7937,-36.1574 69.0086,-44.2945 75.564,-46.7497"/>
</g>
<!-- 2 -->
<g id="node3" class="node">
<title>2</title>
<path fill="none" stroke="#59d856" stroke-width="2" d="M157.5,-108C157.5,-108 85.5,-108 85.5,-108 79.5,-108 73.5,-102 73.5,-96 73.5,-96 73.5,-84 73.5,-84 73.5,-78 79.5,-72 85.5,-72 85.5,-72 157.5,-72 157.5,-72 163.5,-72 169.5,-78 169.5,-84 169.5,-84 169.5,-96 169.5,-96 169.5,-102 163.5,-108 157.5,-108"/>
<text text-anchor="middle" x="121.5" y="-87.5" font-family="sans" font-size="10.00" fill="#000000">MAGs_summary</text>
</g>
<!-- 2&#45;&gt;0 -->
<g id="edge2" class="edge">
<title>2&#45;&gt;0</title>
<path fill="none" stroke="#c0c0c0" stroke-width="2" d="M111.911,-71.8314C107.6683,-63.7925 102.5879,-54.1666 97.904,-45.2918"/>
<polygon fill="#c0c0c0" stroke="#c0c0c0" stroke-width="2" points="100.9811,-43.6235 93.2181,-36.4133 94.7904,-46.8908 100.9811,-43.6235"/>
</g>
<!-- 3 -->
<g id="node4" class="node">
<title>3</title>
<path fill="none" stroke="#568ad8" stroke-width="2" stroke-dasharray="5,2" d="M127.5,-468C127.5,-468 65.5,-468 65.5,-468 59.5,-468 53.5,-462 53.5,-456 53.5,-456 53.5,-444 53.5,-444 53.5,-438 59.5,-432 65.5,-432 65.5,-432 127.5,-432 127.5,-432 133.5,-432 139.5,-438 139.5,-444 139.5,-444 139.5,-456 139.5,-456 139.5,-462 133.5,-468 127.5,-468"/>
<text text-anchor="middle" x="96.5" y="-453" font-family="sans" font-size="10.00" fill="#000000">filter</text>
<text text-anchor="middle" x="96.5" y="-442" font-family="sans" font-size="10.00" fill="#000000">sample: demo</text>
</g>
<!-- 3&#45;&gt;1 -->
<g id="edge3" class="edge">
<title>3&#45;&gt;1</title>
<path fill="none" stroke="#c0c0c0" stroke-width="2" d="M56.3973,-431.9226C42.0601,-423.2521 27.4861,-411.3548 19.5,-396 9.0997,-376.0034 17.5794,-351.2816 27.5457,-332.8109"/>
<polygon fill="#c0c0c0" stroke="#c0c0c0" stroke-width="2" points="30.6454,-334.4426 32.6404,-324.0373 24.592,-330.9274 30.6454,-334.4426"/>
</g>
<!-- 4 -->
<g id="node5" class="node">
<title>4</title>
<path fill="none" stroke="#d85656" stroke-width="2" d="M88,-396C88,-396 41,-396 41,-396 35,-396 29,-390 29,-384 29,-384 29,-372 29,-372 29,-366 35,-360 41,-360 41,-360 88,-360 88,-360 94,-360 100,-366 100,-372 100,-372 100,-384 100,-384 100,-390 94,-396 88,-396"/>
<text text-anchor="middle" x="64.5" y="-375.5" font-family="sans" font-size="10.00" fill="#000000">seqkit_stat</text>
</g>
<!-- 3&#45;&gt;4 -->
<g id="edge7" class="edge">
<title>3&#45;&gt;4</title>
<path fill="none" stroke="#c0c0c0" stroke-width="2" d="M88.425,-431.8314C84.8898,-423.8771 80.664,-414.369 76.7544,-405.5723"/>
<polygon fill="#c0c0c0" stroke="#c0c0c0" stroke-width="2" points="79.9435,-404.1299 72.6837,-396.4133 73.5468,-406.9729 79.9435,-404.1299"/>
</g>
<!-- 7 -->
<g id="node8" class="node">
<title>7</title>
<path fill="none" stroke="#56c1d8" stroke-width="2" d="M167.5,-324C167.5,-324 127.5,-324 127.5,-324 121.5,-324 115.5,-318 115.5,-312 115.5,-312 115.5,-300 115.5,-300 115.5,-294 121.5,-288 127.5,-288 127.5,-288 167.5,-288 167.5,-288 173.5,-288 179.5,-294 179.5,-300 179.5,-300 179.5,-312 179.5,-312 179.5,-318 173.5,-324 167.5,-324"/>
<text text-anchor="middle" x="147.5" y="-303.5" font-family="sans" font-size="10.00" fill="#000000">metabat2</text>
</g>
<!-- 3&#45;&gt;7 -->
<g id="edge11" class="edge">
<title>3&#45;&gt;7</title>
<path fill="none" stroke="#c0c0c0" stroke-width="2" d="M102.9592,-431.7623C111.7346,-406.9846 127.4997,-362.4714 137.7272,-333.5939"/>
<polygon fill="#c0c0c0" stroke="#c0c0c0" stroke-width="2" points="141.0539,-334.6844 141.0933,-324.0896 134.4555,-332.3474 141.0539,-334.6844"/>
</g>
<!-- 9 -->
<g id="node10" class="node">
<title>9</title>
<path fill="none" stroke="#56d8c1" stroke-width="2" d="M202,-396C202,-396 169,-396 169,-396 163,-396 157,-390 157,-384 157,-384 157,-372 157,-372 157,-366 163,-360 169,-360 169,-360 202,-360 202,-360 208,-360 214,-366 214,-372 214,-372 214,-384 214,-384 214,-390 208,-396 202,-396"/>
<text text-anchor="middle" x="185.5" y="-375.5" font-family="sans" font-size="10.00" fill="#000000">megahit</text>
</g>
<!-- 3&#45;&gt;9 -->
<g id="edge14" class="edge">
<title>3&#45;&gt;9</title>
<path fill="none" stroke="#c0c0c0" stroke-width="2" d="M118.9585,-431.8314C129.9205,-422.9632 143.2699,-412.1637 155.1265,-402.5718"/>
<polygon fill="#c0c0c0" stroke="#c0c0c0" stroke-width="2" points="157.4755,-405.1734 163.0487,-396.1628 153.0729,-399.7313 157.4755,-405.1734"/>
</g>
<!-- 4&#45;&gt;1 -->
<g id="edge4" class="edge">
<title>4&#45;&gt;1</title>
<path fill="none" stroke="#c0c0c0" stroke-width="2" d="M59.7055,-359.8314C57.6511,-352.0463 55.204,-342.7729 52.9244,-334.1347"/>
<polygon fill="#c0c0c0" stroke="#c0c0c0" stroke-width="2" points="56.2948,-333.1892 50.3591,-324.4133 49.5265,-334.9753 56.2948,-333.1892"/>
</g>
<!-- 5 -->
<g id="node6" class="node">
<title>5</title>
<path fill="none" stroke="#56d88a" stroke-width="2" d="M137.5,-180C137.5,-180 91.5,-180 91.5,-180 85.5,-180 79.5,-174 79.5,-168 79.5,-168 79.5,-156 79.5,-156 79.5,-150 85.5,-144 91.5,-144 91.5,-144 137.5,-144 137.5,-144 143.5,-144 149.5,-150 149.5,-156 149.5,-156 149.5,-168 149.5,-168 149.5,-174 143.5,-180 137.5,-180"/>
<text text-anchor="middle" x="114.5" y="-159.5" font-family="sans" font-size="10.00" fill="#000000">pick_MAGs</text>
</g>
<!-- 5&#45;&gt;2 -->
<g id="edge5" class="edge">
<title>5&#45;&gt;2</title>
<path fill="none" stroke="#c0c0c0" stroke-width="2" d="M116.2664,-143.8314C117.015,-136.131 117.9053,-126.9743 118.7373,-118.4166"/>
<polygon fill="#c0c0c0" stroke="#c0c0c0" stroke-width="2" points="122.2256,-118.7051 119.7098,-108.4133 115.2585,-118.0276 122.2256,-118.7051"/>
</g>
<!-- 6 -->
<g id="node7" class="node">
<title>6</title>
<path fill="none" stroke="#bed856" stroke-width="2" d="M227.5,-180C227.5,-180 179.5,-180 179.5,-180 173.5,-180 167.5,-174 167.5,-168 167.5,-168 167.5,-156 167.5,-156 167.5,-150 173.5,-144 179.5,-144 179.5,-144 227.5,-144 227.5,-144 233.5,-144 239.5,-150 239.5,-156 239.5,-156 239.5,-168 239.5,-168 239.5,-174 233.5,-180 227.5,-180"/>
<text text-anchor="middle" x="203.5" y="-159.5" font-family="sans" font-size="10.00" fill="#000000">seqkit_bins</text>
</g>
<!-- 6&#45;&gt;2 -->
<g id="edge6" class="edge">
<title>6&#45;&gt;2</title>
<path fill="none" stroke="#c0c0c0" stroke-width="2" d="M182.8079,-143.8314C172.8052,-135.0485 160.645,-124.3712 149.8001,-114.8489"/>
<polygon fill="#c0c0c0" stroke="#c0c0c0" stroke-width="2" points="152.0092,-112.1308 142.1854,-108.1628 147.3906,-117.3909 152.0092,-112.1308"/>
</g>
<!-- 7&#45;&gt;5 -->
<g id="edge8" class="edge">
<title>7&#45;&gt;5</title>
<path fill="none" stroke="#c0c0c0" stroke-width="2" d="M131.0719,-287.989C123.1975,-278.1289 114.602,-265.2441 110.5,-252 104.2722,-231.8926 105.6982,-208.0522 108.4516,-189.9614"/>
<polygon fill="#c0c0c0" stroke="#c0c0c0" stroke-width="2" points="111.9108,-190.4981 110.1784,-180.0459 105.0146,-189.2971 111.9108,-190.4981"/>
</g>
<!-- 7&#45;&gt;6 -->
<g id="edge10" class="edge">
<title>7&#45;&gt;6</title>
<path fill="none" stroke="#c0c0c0" stroke-width="2" d="M162.8159,-287.5801C170.386,-277.608 179.0449,-264.7465 184.5,-252 192.9563,-232.2409 197.7726,-208.3827 200.4389,-190.1965"/>
<polygon fill="#c0c0c0" stroke="#c0c0c0" stroke-width="2" points="203.9169,-190.5934 201.7717,-180.218 196.9785,-189.6666 203.9169,-190.5934"/>
</g>
<!-- 8 -->
<g id="node9" class="node">
<title>8</title>
<path fill="none" stroke="#d88d56" stroke-width="2" d="M163,-252C163,-252 132,-252 132,-252 126,-252 120,-246 120,-240 120,-240 120,-228 120,-228 120,-222 126,-216 132,-216 132,-216 163,-216 163,-216 169,-216 175,-222 175,-228 175,-228 175,-240 175,-240 175,-246 169,-252 163,-252"/>
<text text-anchor="middle" x="147.5" y="-231.5" font-family="sans" font-size="10.00" fill="#000000">checkm</text>
</g>
<!-- 7&#45;&gt;8 -->
<g id="edge13" class="edge">
<title>7&#45;&gt;8</title>
<path fill="none" stroke="#c0c0c0" stroke-width="2" d="M147.5,-287.8314C147.5,-280.131 147.5,-270.9743 147.5,-262.4166"/>
<polygon fill="#c0c0c0" stroke="#c0c0c0" stroke-width="2" points="151.0001,-262.4132 147.5,-252.4133 144.0001,-262.4133 151.0001,-262.4132"/>
</g>
<!-- 8&#45;&gt;5 -->
<g id="edge9" class="edge">
<title>8&#45;&gt;5</title>
<path fill="none" stroke="#c0c0c0" stroke-width="2" d="M139.1727,-215.8314C135.527,-207.8771 131.1691,-198.369 127.1373,-189.5723"/>
<polygon fill="#c0c0c0" stroke="#c0c0c0" stroke-width="2" points="130.2877,-188.0456 122.9394,-180.4133 123.9243,-190.9622 130.2877,-188.0456"/>
</g>
<!-- 9&#45;&gt;7 -->
<g id="edge12" class="edge">
<title>9&#45;&gt;7</title>
<path fill="none" stroke="#c0c0c0" stroke-width="2" d="M175.911,-359.8314C171.6683,-351.7925 166.5879,-342.1666 161.904,-333.2918"/>
<polygon fill="#c0c0c0" stroke="#c0c0c0" stroke-width="2" points="164.9811,-331.6235 157.2181,-324.4133 158.7904,-334.8908 164.9811,-331.6235"/>
</g>
</g>
</svg>
